# xmcd
#
# Track frame offsets: 
#        202
#        10115
#        21570
#        32757
#        43412
#        53417
#        63027
#        73857
#        85825
#        95087
#        105072
#        115657
#        124402
#        134275
#        144500
#        154725
#
# Disc length: 2188 seconds
#
# Revision: 4
# Processed by: cddbd v1.5.2PL0 Copyright (c) Steve Scherf et al.
# Submitted via: ExactAudioCopy v1.0b1
#
DISCID=d4088a10
DTITLE=Speedy West And Jimmy Bryant - Stratosphere Boogie The Flaming 
DTITLE=Guitars Of
DYEAR=1995
DGENRE=Country-Jazz
TTITLE0=Stratosphere Boogie
TTITLE1=Blue Bonnet Rag
TTITLE2=Cotton Pickin'
TTITLE3=Old Joe Clark
TTITLE4=Sleepwalker's Lullaby
TTITLE5=Arkansas Traveler
TTITLE6=The Night Rider
TTITLE7=Low Man On A Totem Pole
TTITLE8=Speedin' West
TTITLE9=Comin' On
TTITLE10=Bryant's Bounce
TTITLE11=Midnight Ramble
TTITLE12=Pickin' Peppers
TTITLE13=Shuffleboard Rag
TTITLE14=Bustin' Thru
TTITLE15=Flippin' The Lid
EXTD=All tracks recorded at Capitol Studios (except track 7 at Capitol
EXTD=Tower), Los Angeles US-CA, 1952-05-06/1956-10-09.\nWesley Webb "
EXTD=Speedy" West (1924-01-25/2003-11-15): pedal steel guitar\nIvy J. 
EXTD="Jimmy" Bryant, Jr. (1925-03-05/1980-09-22): lead guitar, Stratos
EXTD=phere doubleneck guitar (tracks 1,16), fiddle (overdubbed, 10]\nB
EXTD=illy Strange (ex 7,14), Jimmie Widener (7,14): rhythm guitar\nBil
EXTD=ly Liebert (ex 1,11,16), Les Taylor (1,16): piano\nCliffie Stone 
EXTD=(ex 2,8,14), Al Williams (2,8), George Bruns (14): bass\nRoy Hart
EXTD=e (ex 1,7,16), Pee Wee Adams (1,7,16): drums\nCompilation by Matt
EXTD=Goldman - sequencing and annotation by Rich Kienzle.\nMastered by S
EXTD=teve Hoffman at L.R.S., Burbank US-CA.\nProject coordinated by Mi
EXTD=ke Ragogna.\nCD: Razor and Tie RE 2067 (1995-05-23), UPC 7930182067
EXTD=23.
EXTT0=(Jimmy Bryant]\nRecorded 1954-09-02 (mx 13001) - Capitol single 2
EXTT0=964 - Capitol LP T-1314, Jimmy Bryant: "Country Cabin Jazz".
EXTT1=(Leon McAliffe]\nRecorded 1954-01-06 (mx 12225) - Capitol LP T-52
EXTT1=0, "Two Guitars Country Style".
EXTT2=(Jimmy Bryant]\nRecorded 1954-05-11 (mx 12636) - Capitol single 3
EXTT2=150.
EXTT3=(trad. - arr. Jimmy Bryant]\nRecorded 1953-12-28 (mx 12191) - Capi
EXTT3=tol LP T-520, "Two Guitars Country Style".
EXTT4=(Lou Duhig/Harold Hensley]\nRecorded 1954-05-11 (mx 12634) - Capi
EXTT4=tol single 3150.
EXTT5=(trad.]\nRecorded 1953-12-28 (mx 12193) - Capitol LP T-520, "Two 
EXTT5=Guitars Country Style".
EXTT6=(Jimmy Bryant]\nRecorded 1956-10-09 (mx 16070) - Capitol single 3
EXTT6=635 - Capitol LP T-1314, Jimmy Bryant: "Country Cabin Jazz".
EXTT7=(Jimmy Bryant]\nRecorded 1954-01-06 (mx 12228) - Capitol LP T-520
EXTT7=, "Two Guitars Country Style".
EXTT8=(Speedy West]\nRecorded 1953-05-27 (mx 11562) - Capitol single 25
EXTT8=19 - Capitol LP T-1341, Speedy West: "Steel Guitar".
EXTT9=(Jimmy Bryant]\nRecorded 1952-05-06 (mx 10070) - Capitol single 2
EXTT9=310.
EXTT10=(Jimmy Bryant]\nRecorded 1952-11-25 (mx 10854) - Capitol single 
EXTT10=2444 - Capitol LP T-520, "Two Guitars Country Style".
EXTT11=(Speedy West]\nRecorded 1952-05-06 (mx 10069) - Capitol single 2
EXTT11=160 - Capitol LP T-520, "Two Guitars Country Style".
EXTT12=(Jimmy Bryant]\nRecorded 1955-08-05 (mx 14086) - Capitol single 
EXTT12=3454 - Capitol LP T-1314, Jimmy Bryant: "Country Cabin Jazz".
EXTT13=(Speedy West]\nRecorded 1955-06-14 (mx 13640) - Capitol single 3
EXTT13=348.
EXTT14=(Speedy West/Don Davis]\nRecorded 1954-05-11 (mx 12637) - Capito
EXTT14=l single 2892.
EXTT15=(Speedy West]\nRecorded 1954-09-02 (mx 12999) - Capitol single 3
EXTT15=026.
PLAYORDER=
